extratorrent.com

 
http://www.imdb.com/title/tt1640642/
 
http://extratorrent.com/torrent/2301728/

Format;Avi

File Size:612mb

Video: ID : 0
Format : MPEG-4 Visual
Format profile : Advanced Simple@L5
Format settings, BVOP : Yes
Format settings, QPel : No
Format settings, GMC : No warppoints
Format settings, Matrix : Default (H.263)
Muxing mode : Packed bitstream
Codec ID : XVID
Codec ID/Hint : XviD
Duration : 1h 2mn
Bit rate : 895 Kbps
Width : 704 pixels
Height : 392 pixels
Display aspect ratio : 16:9
Frame rate : 29.970 fps
Resolution : 8 bits
Colorimetry : 4:2:0
Scan type : Progressive
Bits/(Pixel*Frame) : 0.108
Stream size : 398 MiB (66%)
Writing library : XviD 1.2.1 (UTC 2008-12-04)

Audio: Audio
ID : 1
Format : AC-3
Format/Info : Audio Coding 3
Codec ID : 2000
Duration : 1h 2mn
Bit rate mode : Constant
Bit rate : 448 Kbps
Channel(s) : 6 channels
Channel positions : Front: L C R, Surround: L R, LFE
Sampling rate : 48.0 KHz
Stream size : 199 MiB (33%)
Alignment : Aligned on interleaves
Interleave, duration : 33 ms (1.00 video frame)
Interleave, preload duration : 512 ms

Duration:1:02

Release Date:2010

Language:English

Plot: Talented impressionist Donnell Rawlings performs before a packed house and delivers hysterical renditions of such popular celebrities as Michael Jackson, and President Barack Obama. ~ Perry Seibert, Rovi


Screens:
 
http://img266.imageshack.us/img266/3446/vlcsnap2010091806h44m32.png 
http://img840.imageshack.us/img840/6218/vlcsnap2010091806h44m43.png 
http://img808.imageshack.us/img808/1386/vlcsnap2010091806h45m09.png 
http://img256.imageshack.us/img256/9923/vlcsnap2010091806h44m55.png 
http://img529.imageshack.us/img529/8391/vlcsnap2010091806h45m18.png
